<svg width="17" height="17" viewBox="0 0 17 17" fill="none" xmlns="http://www.w3.org/2000/svg">
<g clip-path="url(#clip0_4019_420)">
<path d="M13 1.43042H3.66667C2.78294 1.43148 1.93571 1.78301 1.31082 2.4079C0.685928 3.03279 0.334398 3.88002 0.33334 4.76375L0.33334 12.7638C0.334398 13.6475 0.685928 14.4947 1.31082 15.1196C1.93571 15.7445 2.78294 16.096 3.66667 16.0971H13C13.8837 16.096 14.731 15.7445 15.3559 15.1196C15.9808 14.4947 16.3323 13.6475 16.3333 12.7638V4.76375C16.3323 3.88002 15.9808 3.03279 15.3559 2.4079C14.731 1.78301 13.8837 1.43148 13 1.43042V1.43042ZM3.66667 2.76375H13C13.3992 2.76454 13.789 2.88476 14.1193 3.10896C14.4496 3.33315 14.7052 3.65105 14.8533 4.02175L9.74801 9.12775C9.37229 9.50196 8.86362 9.71207 8.33334 9.71207C7.80306 9.71207 7.29439 9.50196 6.91867 9.12775L1.81334 4.02175C1.96144 3.65105 2.21708 3.33315 2.54737 3.10896C2.87766 2.88476 3.26748 2.76454 3.66667 2.76375V2.76375ZM13 14.7638H3.66667C3.13624 14.7638 2.62753 14.553 2.25246 14.178C1.87739 13.8029 1.66667 13.2942 1.66667 12.7638V5.76375L5.97601 10.0704C6.60176 10.6946 7.44951 11.0451 8.33334 11.0451C9.21717 11.0451 10.0649 10.6946 10.6907 10.0704L15 5.76375V12.7638C15 13.2942 14.7893 13.8029 14.4142 14.178C14.0391 14.553 13.5304 14.7638 13 14.7638Z" fill="black"/>
</g>
<defs>
<clipPath id="clip0_4019_420">
<rect width="16" height="16" fill="white" transform="translate(0.333344 0.763916)"/>
</clipPath>
</defs>
</svg>
