<svg width="40" height="40" viewBox="0 0 40 40" fill="none" xmlns="http://www.w3.org/2000/svg">
<rect width="40" height="40" rx="20" fill="white"/>
<path d="M21.1151 16H22.7304C22.879 16 22.9996 15.888 22.9996 15.75V14.25C22.9996 14.112 22.879 14 22.7304 14H21.1151C19.4826 14 18.1537 15.2335 18.1537 16.75V18.5H16.2692C16.1206 18.5 16 18.612 16 18.75V20.25C16 20.388 16.1206 20.5 16.2692 20.5H18.1537V25.75C18.1537 25.888 18.2743 26 18.423 26H20.0383C20.1869 26 20.3075 25.888 20.3075 25.75V20.5H22.192C22.3078 20.5 22.4106 20.431 22.4477 20.329L22.9862 18.829C23.0136 18.753 22.9996 18.669 22.949 18.6035C22.8979 18.5385 22.8171 18.5 22.7304 18.5H20.3075V16.75C20.3075 16.3365 20.6698 16 21.1151 16Z" fill="black"/>
</svg>
