<svg width="38" height="38" viewBox="0 0 38 38" fill="none" xmlns="http://www.w3.org/2000/svg">
<rect width="38" height="38" rx="19" fill="white"/>
<path d="M14.7248 16.1496C15.5117 16.1496 16.1497 15.5117 16.1497 14.7248C16.1497 13.9379 15.5117 13.3 14.7248 13.3C13.9379 13.3 13.3 13.9379 13.3 14.7248C13.3 15.5117 13.9379 16.1496 14.7248 16.1496Z" fill="black"/>
<path d="M15.9125 17.1001H13.5375C13.4064 17.1001 13.3 17.2065 13.3 17.3376V24.4626C13.3 24.5937 13.4064 24.7001 13.5375 24.7001H15.9125C16.0436 24.7001 16.15 24.5937 16.15 24.4626V17.3376C16.15 17.2065 16.0436 17.1001 15.9125 17.1001Z" fill="black"/>
<path d="M22.9886 16.2891C21.9735 15.9618 20.7038 16.2493 19.9424 16.7648C19.9163 16.6686 19.8232 16.5971 19.7125 16.5971H17.3375C17.2064 16.5971 17.1 16.6972 17.1 16.8206V23.5265C17.1 23.6499 17.2064 23.75 17.3375 23.75H19.7125C19.8436 23.75 19.95 23.6499 19.95 23.5265V18.7072C20.3338 18.3961 20.8283 18.2968 21.233 18.4587C21.6253 18.6147 21.85 18.9956 21.85 19.503V23.5265C21.85 23.6499 21.9564 23.75 22.0875 23.75H24.4625C24.5936 23.75 24.7 23.6499 24.7 23.5265V19.0528C24.6729 17.2158 23.7547 16.5359 22.9886 16.2891Z" fill="black"/>
</svg>
