<svg width="5" height="10" viewBox="0 0 5 10" fill="none" xmlns="http://www.w3.org/2000/svg">
<path d="M4.26654 3.58669L1.20654 0.526686C1.08163 0.402519 0.912659 0.332825 0.736535 0.332825C0.560411 0.332825 0.391443 0.402519 0.266535 0.526686C0.204049 0.588662 0.154453 0.662396 0.120607 0.743635C0.0867616 0.824875 0.0693359 0.912012 0.0693359 1.00002C0.0693359 1.08803 0.0867616 1.17516 0.120607 1.2564C0.154453 1.33764 0.204049 1.41138 0.266535 1.47335L3.3332 4.52669C3.39569 4.58866 3.44528 4.6624 3.47913 4.74364C3.51298 4.82488 3.5304 4.91201 3.5304 5.00002C3.5304 5.08803 3.51298 5.17517 3.47913 5.25641C3.44528 5.33764 3.39569 5.41138 3.3332 5.47335L0.266535 8.52669C0.140999 8.65134 0.0701225 8.82075 0.0694974 8.99766C0.0688723 9.17457 0.13855 9.34449 0.263202 9.47002C0.387854 9.59556 0.557269 9.66643 0.734178 9.66706C0.911087 9.66768 1.081 9.59801 1.20654 9.47335L4.26654 6.41335C4.64107 6.03835 4.85144 5.53002 4.85144 5.00002C4.85144 4.47002 4.64107 3.96169 4.26654 3.58669V3.58669Z" fill="#6F6F6F"/>
</svg>
