<svg width="17" height="17" viewBox="0 0 17 17" fill="none" xmlns="http://www.w3.org/2000/svg">
<g clip-path="url(#clip0_4019_418)">
<path d="M8.33341 4.76392C7.806 4.76392 7.29042 4.92031 6.85189 5.21333C6.41336 5.50635 6.07157 5.92282 5.86973 6.41009C5.6679 6.89736 5.61509 7.43354 5.71798 7.95082C5.82088 8.46811 6.07485 8.94326 6.44779 9.3162C6.82073 9.68914 7.29589 9.94312 7.81317 10.046C8.33045 10.1489 8.86663 10.0961 9.3539 9.89426C9.84117 9.69243 10.2576 9.35063 10.5507 8.9121C10.8437 8.47357 11.0001 7.958 11.0001 7.43058C11.0001 6.72334 10.7191 6.04506 10.219 5.54496C9.71893 5.04487 9.04066 4.76392 8.33341 4.76392ZM8.33341 8.76392C8.0697 8.76392 7.81192 8.68572 7.59265 8.53921C7.37339 8.3927 7.20249 8.18446 7.10157 7.94083C7.00066 7.69719 6.97425 7.4291 7.0257 7.17046C7.07715 6.91182 7.20413 6.67424 7.3906 6.48777C7.57707 6.3013 7.81465 6.17432 8.07329 6.12287C8.33193 6.07142 8.60002 6.09783 8.84366 6.19874C9.08729 6.29966 9.29553 6.47056 9.44204 6.68982C9.58855 6.90909 9.66675 7.16687 9.66675 7.43058C9.66675 7.7842 9.52627 8.12334 9.27622 8.37339C9.02617 8.62344 8.68703 8.76392 8.33341 8.76392Z" fill="black"/>
<path d="M8.33329 16.7642C7.77192 16.767 7.21803 16.6354 6.718 16.3802C6.21797 16.125 5.78636 15.7537 5.45929 15.2975C2.91863 11.7928 1.62996 9.15815 1.62996 7.46615C1.62996 5.68832 2.3362 3.9833 3.59332 2.72618C4.85044 1.46906 6.55546 0.762817 8.33329 0.762817C10.1111 0.762817 11.8161 1.46906 13.0733 2.72618C14.3304 3.9833 15.0366 5.68832 15.0366 7.46615C15.0366 9.15815 13.748 11.7928 11.2073 15.2975C10.8802 15.7537 10.4486 16.125 9.94858 16.3802C9.44855 16.6354 8.89466 16.767 8.33329 16.7642V16.7642ZM8.33329 2.21815C6.94157 2.21974 5.6073 2.7733 4.62321 3.7574C3.63911 4.7415 3.08555 6.07576 3.08396 7.46748C3.08396 8.80749 4.34596 11.2855 6.63663 14.4448C6.83109 14.7127 7.08621 14.9307 7.3811 15.081C7.676 15.2313 8.00229 15.3097 8.33329 15.3097C8.66429 15.3097 8.99059 15.2313 9.28548 15.081C9.58038 14.9307 9.8355 14.7127 10.03 14.4448C12.3206 11.2855 13.5826 8.80749 13.5826 7.46748C13.581 6.07576 13.0275 4.7415 12.0434 3.7574C11.0593 2.7733 9.72501 2.21974 8.33329 2.21815V2.21815Z" fill="black"/>
</g>
<defs>
<clipPath id="clip0_4019_418">
<rect width="16" height="16" fill="white" transform="translate(0.333344 0.763916)"/>
</clipPath>
</defs>
</svg>
