<svg width="17" height="17" viewBox="0 0 17 17" fill="none" xmlns="http://www.w3.org/2000/svg">
<g clip-path="url(#clip0_4019_419)">
<path d="M8.99993 1.43067C8.99993 1.25386 9.07017 1.08429 9.19519 0.959266C9.32022 0.834242 9.48979 0.764004 9.6666 0.764004C11.4341 0.765945 13.1287 1.46895 14.3785 2.71877C15.6283 3.96859 16.3313 5.66316 16.3333 7.43067C16.3333 7.60748 16.263 7.77705 16.138 7.90208C16.013 8.0271 15.8434 8.09734 15.6666 8.09734C15.4898 8.09734 15.3202 8.0271 15.1952 7.90208C15.0702 7.77705 14.9999 7.60748 14.9999 7.43067C14.9983 6.01667 14.4359 4.66104 13.4361 3.66119C12.4362 2.66134 11.0806 2.09893 9.6666 2.09734C9.48979 2.09734 9.32022 2.0271 9.19519 1.90208C9.07017 1.77705 8.99993 1.60748 8.99993 1.43067V1.43067ZM9.6666 4.764C10.3738 4.764 11.0521 5.04496 11.5522 5.54505C12.0523 6.04515 12.3333 6.72343 12.3333 7.43067C12.3333 7.60748 12.4035 7.77705 12.5285 7.90208C12.6535 8.0271 12.8231 8.09734 12.9999 8.09734C13.1767 8.09734 13.3463 8.0271 13.4713 7.90208C13.5964 7.77705 13.6666 7.60748 13.6666 7.43067C13.6655 6.37013 13.2438 5.35333 12.4938 4.60341C11.7439 3.8535 10.7271 3.43173 9.6666 3.43067C9.48979 3.43067 9.32022 3.50091 9.19519 3.62593C9.07017 3.75096 8.99993 3.92053 8.99993 4.09734C8.99993 4.27415 9.07017 4.44372 9.19519 4.56874C9.32022 4.69377 9.48979 4.764 9.6666 4.764V4.764ZM15.7286 11.9233C16.1149 12.3107 16.3319 12.8355 16.3319 13.3827C16.3319 13.9298 16.1149 14.4546 15.7286 14.842L15.1219 15.5413C9.66193 20.7687 -3.62472 7.48534 1.52194 2.008L2.28861 1.34134C2.67645 0.965789 3.19656 0.758037 3.73641 0.763027C4.27625 0.768018 4.79243 0.98535 5.17327 1.368C5.19394 1.38867 6.42927 2.99334 6.42927 2.99334C6.79582 3.37842 6.99987 3.88996 6.999 4.42161C6.99813 4.95326 6.79241 5.46412 6.4246 5.848L5.6526 6.81867C6.07983 7.85675 6.70798 8.80017 7.50094 9.59474C8.2939 10.3893 9.23605 11.0193 10.2733 11.4487L11.2499 10.672C11.6339 10.3045 12.1446 10.099 12.6761 10.0983C13.2076 10.0975 13.719 10.3016 14.1039 10.668C14.1039 10.668 15.7079 11.9027 15.7286 11.9233ZM14.8113 12.8927C14.8113 12.8927 13.2159 11.6653 13.1953 11.6447C13.0579 11.5085 12.8723 11.4321 12.6789 11.4321C12.4855 11.4321 12.2999 11.5085 12.1626 11.6447C12.1446 11.6633 10.7999 12.7347 10.7999 12.7347C10.7093 12.8068 10.6015 12.8541 10.487 12.8718C10.3726 12.8896 10.2555 12.8773 10.1473 12.836C8.80357 12.3357 7.58309 11.5525 6.56849 10.5394C5.55389 9.52629 4.76887 8.30696 4.2666 6.96401C4.22207 6.85431 4.20755 6.73473 4.22454 6.61756C4.24153 6.5004 4.28941 6.38987 4.36327 6.29734C4.36327 6.29734 5.4346 4.952 5.4526 4.93467C5.58878 4.79733 5.66519 4.61175 5.66519 4.41834C5.66519 4.22493 5.58878 4.03935 5.4526 3.902C5.43193 3.882 4.2046 2.28534 4.2046 2.28534C4.0652 2.16034 3.88327 2.0934 3.6961 2.09824C3.50893 2.10307 3.3307 2.17931 3.19794 2.31134L2.43127 2.978C-1.33006 7.50067 10.1839 18.376 14.1473 14.6307L14.7546 13.9307C14.8969 13.7988 14.9824 13.6168 14.993 13.4231C15.0035 13.2294 14.9384 13.0392 14.8113 12.8927V12.8927Z" fill="black"/>
</g>
<defs>
<clipPath id="clip0_4019_419">
<rect width="16" height="16" fill="white" transform="translate(0.333344 0.763916)"/>
</clipPath>
</defs>
</svg>
