<svg width="20" height="20" viewBox="0 0 20 20" fill="none" xmlns="http://www.w3.org/2000/svg">
<path d="M4.00095 15.0009H15.9964M14.9968 19C15.2619 19 15.5161 18.8947 15.7036 18.7072C15.8911 18.5197 15.9964 18.2654 15.9964 18.0002V12.6514C15.9964 12.1945 16.3123 11.8076 16.7231 11.6107C17.5737 11.2048 18.2537 10.5115 18.643 9.65299C19.0323 8.79453 19.1058 7.82612 18.8507 6.91868C18.5956 6.01124 18.0282 5.22311 17.2486 4.69337C16.469 4.16363 15.5274 3.92634 14.5899 4.02338C14.2038 3.12579 13.5632 2.36105 12.7472 1.82371C11.9312 1.28637 10.9756 1 9.99866 1C9.02169 1 8.06613 1.28637 7.25014 1.82371C6.43415 2.36105 5.79351 3.12579 5.40742 4.02338C4.47036 3.92702 3.52937 4.16465 2.75036 4.69436C1.97136 5.22408 1.40435 6.01186 1.14933 6.91882C0.894297 7.82579 0.96762 8.79368 1.35637 9.65186C1.74511 10.51 2.42432 11.2034 3.27423 11.6097C3.68507 11.8076 4.00095 12.1945 4.00095 12.6504V18.0002C4.00095 18.2654 4.10627 18.5197 4.29373 18.7072C4.4812 18.8947 4.73546 19 5.00057 19H14.9968Z" stroke="black" stroke-linecap="round" stroke-linejoin="round"/>
</svg>
