<svg width="40" height="40" viewBox="0 0 40 40" fill="none" xmlns="http://www.w3.org/2000/svg">
<path d="M20 0C31.0457 0 40 8.95431 40 20C40 31.0457 31.0457 40 20 40C8.95431 40 0 31.0457 0 20C0 8.95431 8.95431 0 20 0Z" fill="#EEEEEE"/>
<path d="M12.7984 12.4847C15.8471 9.43603 20.7295 9.38548 23.7026 12.3583C26.3364 14.9921 26.5981 19.1214 24.5002 22.1522L24.3994 22.2972L24.5313 22.4153L28.7953 26.218C29.4333 26.7846 29.4548 27.7888 28.8299 28.4139L28.7277 28.5161C28.1025 29.1411 27.0983 29.1196 26.5318 28.4816L22.729 24.2176L22.6109 24.0857L22.4659 24.1865C19.4384 26.281 15.3057 26.0226 12.672 23.3889C9.69919 20.4158 9.74974 15.5334 12.7984 12.4847ZM14.4143 14.1006C12.2884 16.2264 12.2454 19.6433 14.3314 21.7296C16.4176 23.8158 19.8352 23.7733 21.9611 21.6474C24.087 19.5215 24.1329 16.1073 22.0433 14.0177C19.957 11.9317 16.5401 11.9747 14.4143 14.1006Z" fill="#656565" stroke="#EEEEEE" stroke-width="0.4"/>
</svg>
