<svg width="40" height="40" viewBox="0 0 40 40" fill="none" xmlns="http://www.w3.org/2000/svg">
<rect width="40" height="40" rx="20" fill="white"/>
<path d="M25.9319 16.2181C25.8525 16.1297 25.7247 16.1074 25.6199 16.162C25.5546 16.1958 25.432 16.2403 25.2865 16.2842C25.4701 16.0365 25.6178 15.7591 25.683 15.5098C25.7112 15.4023 25.6699 15.2891 25.5802 15.225C25.4905 15.1615 25.371 15.1615 25.2813 15.225C25.1399 15.3251 24.4574 15.6257 24.026 15.7231C23.0508 14.8566 21.9161 14.7666 20.7364 15.4653C19.7775 16.0333 19.5688 17.1884 19.6095 17.8924C17.4146 17.678 16.0502 16.5018 15.2822 15.5283C15.2285 15.46 15.1419 15.424 15.0605 15.4293C14.9749 15.4357 14.8977 15.4839 14.8539 15.5585C14.4908 16.1805 14.3901 16.8681 14.5638 17.5473C14.6588 17.9178 14.8247 18.2444 15.0172 18.5091C14.9249 18.463 14.8356 18.4053 14.7516 18.3365C14.6744 18.2719 14.5664 18.2598 14.4751 18.3027C14.3843 18.3466 14.3264 18.4398 14.3264 18.5419C14.3264 19.7081 15.0454 20.4862 15.7169 20.8928C15.6083 20.8795 15.4951 20.8552 15.3809 20.8197C15.2828 20.7895 15.1763 20.8197 15.1085 20.8981C15.0407 20.9759 15.0245 21.087 15.0668 21.1818C15.444 22.0282 16.1588 22.6105 17.0431 22.8217C16.2709 23.2817 15.2374 23.5072 14.291 23.3966C14.1683 23.3791 14.0515 23.458 14.0129 23.5776C13.9743 23.6973 14.0249 23.8285 14.1329 23.89C15.5687 24.7078 16.8667 25 17.9885 25C19.621 25 20.881 24.3817 21.6479 23.8645C23.7155 22.4723 25.0042 19.9728 24.8247 17.7362C25.156 17.488 25.6517 17.0296 25.959 16.5367C26.0226 16.4372 26.0112 16.3059 25.9319 16.2181Z" fill="black"/>
</svg>
