<svg width="50" height="50" viewBox="0 0 50 50" fill="none" xmlns="http://www.w3.org/2000/svg">
<path d="M34 0C42.8366 0 50 7.16344 50 16V33.5781C50 42.4147 42.8366 49.5781 34 49.5781H16C7.16344 49.5781 0 42.4147 0 33.5781V16C7.21568e-06 7.16345 7.16345 0 16 0H34Z" fill="#075B5E"/>
<path d="M34 0C42.8366 0 50 7.16344 50 16V33.5781C50 42.4147 42.8366 49.5781 34 49.5781H16C7.16344 49.5781 0 42.4147 0 33.5781V16C7.21568e-06 7.16345 7.16345 0 16 0H34Z" stroke="#D6D6D6"/>
<path fill-rule="evenodd" clip-rule="evenodd" d="M26.3129 30.8311C26.8248 31.3311 27.6422 31.3311 28.1541 30.8311L32.8898 26.2057C33.4106 25.6967 33.4106 24.8718 32.8898 24.3644L28.1544 19.7393C27.6423 19.2392 26.8247 19.2393 26.3127 19.7395C25.7836 20.2566 25.7922 21.1161 26.3215 21.633C27.1926 22.4836 26.6113 23.9828 25.3938 23.9828H19.302C18.5829 23.9828 18 24.5657 18 25.2848C18 26.0039 18.5829 26.5869 19.302 26.5869H25.3935C26.6113 26.5869 27.1925 28.0866 26.3214 28.9376C25.7922 29.4546 25.7836 30.3142 26.3129 30.8311Z" fill="white"/>
</svg>
